<?xml version="1.0" encoding="utf-8"?>
<!-- Generator: Adobe Illustrator 26.0.3, SVG Export Plug-In . SVG Version: 6.00 Build 0)  -->
<svg version="1.1" id="Layer_1" xmlns="http://www.w3.org/2000/svg" xmlns:xlink="http://www.w3.org/1999/xlink" x="0px" y="0px"
	 viewBox="0 0 500 182" style="enable-background:new 0 0 500 182;" xml:space="preserve">
<style type="text/css">
	.st0{fill:none;stroke:#FFEB3B;stroke-width:2;}
	.st1{fill:none;stroke:#FFEB3B;stroke-width:2;stroke-miterlimit:10;}
</style>
<g>
	<path class="st0" d="M16.32,73.58V28.12H2.87V8.84h57.61c7.08,0.06,12.47,1.29,16.16,3.68s5.93,6.4,6.7,12.01
		c0.27,4.3-0.64,7.68-2.73,10.13c-2.09,2.45-5.54,4.47-10.36,6.05v0.18c2.36,0.3,4.54,0.93,6.55,1.9c2,0.97,3.68,2.12,5.04,3.45
		c1.36,1.33,2.41,2.83,3.16,4.5c0.75,1.67,1.12,3.32,1.12,4.93c0,5.11-1.31,8.98-3.92,11.61c-2.62,2.63-5.98,4.35-10.09,5.16
		c-4.11,0.81-9.09,1.18-14.95,1.12H16.32z M38.64,24.53v9.82h15.69c0.87,0,1.78-0.46,2.73-1.37c0.96-0.91,1.46-2.13,1.52-3.65
		c-0.12-1.76-0.7-3-1.73-3.72c-1.03-0.72-1.89-1.08-2.58-1.08H38.64z M38.64,48.52v11.97h14.39c2.48,0.09,4.65-0.45,6.5-1.61
		c1.85-1.17,2.78-2.6,2.78-4.3c0.18-1.88-0.58-3.36-2.26-4.44s-4.03-1.61-7.02-1.61H38.64z"/>
	<path class="st0" d="M226.44,23.48c-2.96-4.98-7.25-8.74-12.87-11.3c-5.62-2.56-12.3-3.83-20.04-3.83
		c-5.83,0-11.04,0.73-15.65,2.17c-4.6,1.45-8.49,3.58-11.66,6.39c-3.17,2.81-5.57,6.27-7.22,10.38c-1.64,4.11-2.47,8.87-2.47,14.28
		c0,4.73,0.64,8.97,1.9,12.73h-19.03l-4.84-6.19c5.02-1.2,8.88-2.84,11.57-4.93c2.69-2.09,4.57-4.69,5.65-7.8
		c1.08-3.11,1.02-7.53-0.18-13.27c-1.55-3.83-4-6.87-7.35-9.15c-3.35-2.27-7.62-3.65-12.82-4.12H89.3v64.73h23.4V52.19l20.53,21.38
		h25.55v-18.3c0.58,1.56,1.26,3.04,2.06,4.43c2.87,4.95,7.09,8.68,12.67,11.21c5.57,2.53,12.25,3.79,20.02,3.79
		s14.46-1.26,20.06-3.77c5.6-2.51,9.88-6.26,12.84-11.25c2.96-4.99,4.44-11.03,4.44-18.11S229.4,28.46,226.44,23.48z M131.85,35.94
		c-1.02,0.64-1.96,0.96-2.82,0.96H112.7V24.98h16.27c0.72,0,1.61,0.4,2.67,1.19c1.06,0.79,1.67,2.43,1.82,4.91
		C133.4,33.68,132.86,35.3,131.85,35.94z M206.87,49.26c-0.52,2.08-1.84,3.92-3.95,5.54c-2.11,1.61-5.28,2.42-9.53,2.42
		c-5.5,0-9.18-1.54-11.05-4.62c-1.87-3.08-2.8-6.69-2.8-10.85c0-10.34,4.62-15.51,13.85-15.51c5.86,0,9.7,1.55,11.52,4.64
		c1.82,3.09,2.82,6.72,3,10.87C207.74,44.68,207.39,47.18,206.87,49.26z"/>
	<path class="st0" d="M272.61,46.14l-6.81,27.44h-21.07L225,8.84h21.07l8.88,27.97l7.71-27.97h19.37l9.01,27.97l6-27.97h21.07
		l-16.23,64.73h-21.07L272.61,46.14z"/>
	<path class="st0" d="M476.63,54.3l-4.84-6.19c5.02-1.2,8.88-2.84,11.57-4.93c2.69-2.09,4.57-4.69,5.65-7.8
		c1.08-3.11,1.02-7.53-0.18-13.27c-1.55-3.83-4-6.87-7.35-9.15s-7.62-3.65-12.82-4.12h-42.14V54.3h-39.9v-7.44h22.24v-11.3h-22.24
		v-7.44h34.43V8.84h-55.45h-0.05h-35.28c-8.25,0-13.15,4-14.7,12.01s2.87,16.8,13.27,26.36c6.31,4.96,5.23,7.32-3.23,7.08h-13.63
		v19.28h34.43c9.32-1.55,14.08-6.34,14.26-14.35s-4.57-16.26-14.26-24.75c-5.41-4.48-4.27-6.6,3.41-6.37h15.73v45.46h60.97h23.4
		V52.19l20.53,21.38H496V54.3H476.63z M469.06,35.94c-1.02,0.64-1.96,0.96-2.83,0.96h-16.32V24.98h16.27c0.72,0,1.6,0.4,2.67,1.19
		c1.06,0.79,1.66,2.43,1.82,4.91C470.61,33.68,470.07,35.3,469.06,35.94z"/>
	<path class="st1" d="M141.2,141.74l-8.21,33.06H107.6L83.83,96.79h25.39l10.7,33.71l9.29-33.71h23.34l10.86,33.71l7.24-33.71h25.39
		l-19.56,78.01h-25.39L141.2,141.74z"/>
	<path class="st1" d="M184.32,174.81l25.66-78.01h38.74l26.09,78.01h-29.5l-4.92-14.05h-23.18l-4.92,14.05H184.32z M229.43,114.08
		l-11.18,30.9h21.5L229.43,114.08z"/>
	<path class="st1" d="M399.83,120.03h24.53V96.79h-48.08c-9.94,0-15.85,4.83-17.72,14.48c-1.87,9.65,3.46,20.24,15.99,31.77
		c7.6,5.98,6.3,8.83-3.89,8.54h-13.18h-23.34l-5.83-7.46c6.05-1.44,10.7-3.42,13.94-5.94c3.24-2.52,5.51-5.65,6.81-9.4
		c1.3-3.75,1.22-9.08-0.22-15.99c-1.87-4.61-4.83-8.28-8.86-11.02c-4.03-2.74-9.18-4.39-15.45-4.97h-50.78v78.01h28.2v-25.77
		l24.74,25.77h0.97h29.82h38.25c11.24-1.87,16.96-7.63,17.18-17.29c0.22-9.65-5.51-19.59-17.18-29.82
		C389.2,122.29,390.57,119.74,399.83,120.03z M325,129.45c-1.23,0.77-2.36,1.16-3.4,1.16h-19.67v-14.37h19.61
		c0.86,0,1.93,0.48,3.21,1.43c1.28,0.95,2.01,2.93,2.19,5.92C326.87,126.72,326.22,128.68,325,129.45z"/>
</g>
</svg>
